<svg width="32" height="32" viewBox="0 0 32 32" fill="none" xmlns="http://www.w3.org/2000/svg">
<g clip-path="url(#clip0_4_50)">
<path d="M16.39 6.34848C11.6921 6.34848 7.87009 10.1705 7.87009 14.8684C7.87009 16.7934 8.50063 18.6111 9.69364 20.1246C9.92225 20.4147 10.1685 20.7004 10.4065 20.9768C11.1172 21.8015 11.7884 22.5805 12.0273 23.4567C12.0324 23.4756 12.0774 23.6596 12.0707 24.2859L12.0696 24.3764C12.0624 24.8848 12.0528 25.581 12.5675 26.103C12.9201 26.4606 13.4141 26.6345 14.0783 26.6345H18.686C19.4032 26.6345 19.9187 26.459 20.2622 26.098C20.7269 25.6098 20.6957 24.9791 20.675 24.5617C20.6714 24.4879 20.6675 24.4135 20.6666 24.3393C20.6591 23.7123 20.706 23.5355 20.708 23.5281C20.9507 22.652 21.7369 21.7281 22.4307 20.9131C22.6622 20.6412 22.8808 20.3843 23.0845 20.1261C24.278 18.6124 24.9088 16.7943 24.9088 14.8686C24.9089 10.1706 21.0874 6.34848 16.39 6.34848ZM21.7369 19.0633C21.5531 19.2962 21.3446 19.5413 21.1239 19.8007C20.315 20.7511 19.398 21.8283 19.0542 23.0698C19.0051 23.2466 18.9412 23.5726 18.9507 24.3596C18.9518 24.4551 18.9563 24.5512 18.9611 24.6464C18.9647 24.7216 18.9697 24.8207 18.9692 24.8991C18.9088 24.909 18.8176 24.9181 18.686 24.9181H14.0783C13.9323 24.9181 13.8469 24.9027 13.8031 24.891C13.7805 24.7792 13.7837 24.547 13.7857 24.4005L13.7871 24.304C13.7953 23.5123 13.7318 23.1839 13.6833 23.0056C13.3424 21.7543 12.4734 20.746 11.7068 19.8564C11.4704 19.582 11.2469 19.3228 11.0417 19.0621C10.0897 17.8542 9.58655 16.404 9.58655 14.8683C9.58655 11.1168 12.6387 8.0646 16.3903 8.0646C20.1412 8.0646 23.1929 11.1168 23.1929 14.8683C23.1926 16.4048 22.6893 17.8555 21.7369 19.0633Z" fill="#2B1E13"/>
<path d="M18.5086 27.4099H14.2705C13.3558 27.4099 12.6115 28.1542 12.6115 29.0689V30.3409C12.6115 31.2556 13.3558 31.9999 14.2705 31.9999H18.5086C19.4233 31.9999 20.1676 31.2556 20.1676 30.3409V29.0689C20.1676 28.1542 19.4233 27.4099 18.5086 27.4099ZM18.4514 30.2838H14.3277V29.1262H18.4514V30.2838Z" fill="#2B1E13"/>
<path d="M16.3895 5.23783C16.8635 5.23783 17.2476 4.85374 17.2476 4.37972V0.858117C17.2476 0.384093 16.8635 0 16.3895 0C15.9154 0 15.5313 0.384093 15.5313 0.858117V4.37972C15.5313 4.85374 15.9155 5.23783 16.3895 5.23783Z" fill="#2B1E13"/>
<path d="M27.6791 3.95854C27.3521 3.61587 26.8089 3.60317 26.4658 3.93017L23.8606 6.41642C23.5177 6.74354 23.5051 7.28678 23.8322 7.62968C24.0009 7.80634 24.2267 7.89536 24.4531 7.89536C24.666 7.89536 24.8793 7.81664 25.0455 7.65806L27.6507 5.17169C27.9936 4.84458 28.0062 4.30133 27.6791 3.95854Z" fill="#2B1E13"/>
<path d="M30.237 12.5399C30.2365 12.5399 30.236 12.5399 30.2356 12.5399L26.882 12.5452C26.4079 12.546 26.0244 12.9308 26.0252 13.4047C26.026 13.8783 26.41 14.2615 26.8833 14.2615C26.8838 14.2615 26.8842 14.2615 26.8847 14.2615L30.2383 14.2561C30.7124 14.2553 31.0959 13.8705 31.0951 13.3966C31.0944 12.923 30.7103 12.5399 30.237 12.5399Z" fill="#2B1E13"/>
<path d="M8.51091 7.40086C8.83803 7.05807 8.82544 6.51494 8.48254 6.18759L5.87729 3.70134C5.53473 3.37434 4.99149 3.38681 4.66403 3.72972C4.33692 4.07251 4.3495 4.61564 4.69241 4.94298L7.29765 7.42935C7.46378 7.58793 7.67694 7.66664 7.88998 7.66664C8.11629 7.66653 8.34227 7.57751 8.51091 7.40086Z" fill="#2B1E13"/>
<path d="M5.11771 12.5452L1.76419 12.5399C1.76373 12.5399 1.76327 12.5399 1.76281 12.5399C1.28947 12.5399 0.905496 12.9233 0.904695 13.3966C0.903894 13.8705 1.28753 14.2553 1.76144 14.2561L5.11496 14.2615C5.11542 14.2615 5.11588 14.2615 5.11633 14.2615C5.58967 14.2615 5.97365 13.8781 5.97445 13.4047C5.97537 12.9308 5.59173 12.5459 5.11771 12.5452Z" fill="#2B1E13"/>
</g>
<defs>
<clipPath id="clip0_4_50">
<rect width="32" height="32" fill="white"/>
</clipPath>
</defs>
</svg>
