<svg width="32" height="32" viewBox="0 0 32 32" fill="none" xmlns="http://www.w3.org/2000/svg">
<path d="M16 7.99999H16.0133M7.99998 2.66666H24C25.4727 2.66666 26.6666 3.86056 26.6666 5.33332V26.6667C26.6666 28.1394 25.4727 29.3333 24 29.3333H7.99998C6.52722 29.3333 5.33331 28.1394 5.33331 26.6667V5.33332C5.33331 3.86056 6.52722 2.66666 7.99998 2.66666ZM21.3333 18.6667C21.3333 21.6122 18.9455 24 16 24C13.0545 24 10.6666 21.6122 10.6666 18.6667C10.6666 15.7211 13.0545 13.3333 16 13.3333C18.9455 13.3333 21.3333 15.7211 21.3333 18.6667Z" stroke="#2B1E13" stroke-width="2.66667" stroke-linecap="round" stroke-linejoin="round"/>
</svg>
